<?xml version="1.0" encoding="utf-8"?>
<COLLADA xmlns="http://www.collada.org/2005/11/COLLADASchema" version="1.4.1">
	<asset>
		<contributor>
			<author>Mecabricks User</author>
			<authoring_tool>Mecabricks 6.0</authoring_tool>
		</contributor>
		<created>2025-11-06 T 14:29:31</created>
		<modified>2025-11-06 T 14:29:31</modified>
		<unit name="millimeter" meter="0.001"/>
		<up_axis>Y_UP</up_axis>
	</asset>
	<library_effects>
		<effect id="MB|21-effect">
			<profile_COMMON>
				<technique sid="common">
					<phong>
						<diffuse>
							<color sid="diffuse">0.6724431569510133 0 0.012983032338510335 1</color>
						</diffuse>
						<index_of_refraction>
							<float sid="index_of_refraction">0</float>
						</index_of_refraction>
					</phong>
				</technique>
			</profile_COMMON>
		</effect>
	</library_effects>
	<library_materials>
		<material id="MB|21-material" name="MB|21">
			<instance_effect url="#MB|21-effect"/>
		</material>
	</library_materials>
	<library_geometries>
		<geometry id="3755.json-mesh" name="3755.json">
			<mesh>
				<source id="3755.json-mesh-positions">
					<float_array id="3755.json-mesh-positions-array" count="1896">5.631 0.15 -1.831 7.006 0.15 -2.4 5.6 0.15 -2.4 5.72 0.15 -1.697 5.854 0.15 -1.608 6.012 0.15 -1.576 6.169 0.15 -1.608 6.303 0.15 -1.697 5.6 0.151 -1.988 5.631 46.8 -1.831 7.006 46.8 -2.4 5.6 46.8 -2.4 5.72 46.8 -1.697 5.854 46.8 -1.608 6.012 46.8 -1.576 6.169 46.8 -1.608 6.303 46.8 -1.697 5.6 46.801 -1.988 2.369 0.15 -1.831 0.994 0.15 -2.4 2.4 0.15 -2.4 2.28 0.15 -1.697 2.146 0.15 -1.608 1.988 0.15 -1.576 1.831 0.15 -1.608 1.697 0.15 -1.697 2.4 0.151 -1.988 2.369 46.8 -1.831 0.994 46.8 -2.4 2.4 46.8 -2.4 2.28 46.8 -1.697 2.146 46.8 -1.608 1.988 46.8 -1.576 1.831 46.8 -1.608 1.697 46.8 -1.697 2.4 46.801 -1.988 5.631 0.15 1.831 7.006 0.15 2.4 5.6 0.15 2.4 5.72 0.15 1.697 5.854 0.15 1.608 6.012 0.15 1.576 6.169 0.15 1.608 6.303 0.15 1.697 5.6 0.151 1.988 5.631 46.8 1.831 7.006 46.8 2.4 5.6 46.8 2.4 5.72 46.8 1.697 5.854 46.8 1.608 6.012 46.8 1.576 6.169 46.8 1.608 6.303 46.8 1.697 5.6 46.801 1.988 2.369 0.15 1.831 0.994 0.15 2.4 2.4 0.15 2.4 2.28 0.15 1.697 2.146 0.15 1.608 1.988 0.15 1.576 1.831 0.15 1.608 1.697 0.15 1.697 2.4 0.151 1.988 2.369 46.8 1.831 0.994 46.8 2.4 2.4 46.8 2.4 2.28 46.8 1.697 2.146 46.8 1.608 1.988 46.8 1.576 1.831 46.8 1.608 1.697 46.8 1.697 2.4 46.801 1.988 11.96 47.98 3.96 11.96 0.02 3.96 11.96 47.98 -3.96 10.4 0.02 -2.4 11.96 0.02 -3.96 10.4 0.02 2.4 10.4 46.8 2.4 10.4 46.8 -2.4 8.612 46.8 -1.478 9.131 46.8 -1.131 9.478 46.8 -0.612 9.6 46.8 0 9.478 46.8 0.612 9.131 46.8 1.131 8.612 46.8 1.478 8 46.8 1.6 7.388 46.8 1.478 6.869 46.8 1.131 6.522 46.8 0.612 6.4 46.8 0 6.522 46.8 -0.612 6.869 46.8 -1.131 7.388 46.8 -1.478 8 46.8 -1.6 0.918 47.98 2.217 1.697 47.98 1.697 2.217 47.98 0.918 2.4 47.98 0 2.217 47.98 -0.918 1.697 47.98 -1.697 0.918 47.98 -2.217 0.612 47.98 1.478 1.131 47.98 1.131 1.478 47.98 0.612 1.6 47.98 0 1.478 47.98 -0.612 1.131 47.98 -1.131 0.612 47.98 -1.478 0.918 49.8 2.217 1.697 49.8 1.697 2.217 49.8 0.918 2.4 49.8 0 2.217 49.8 -0.918 1.697 49.8 -1.697 0.918 49.8 -2.217 0.612 49.8 1.478 1.131 49.8 1.131 1.478 49.8 0.612 1.6 49.8 0 1.478 49.8 -0.612 1.131 49.8 -1.131 0.612 49.8 -1.478 8 47.98 -2.4 7.082 47.98 -2.217 6.303 47.98 -1.697 5.783 47.98 -0.918 5.6 47.98 0 5.783 47.98 0.918 6.303 47.98 1.697 7.082 47.98 2.217 8 47.98 2.4 8.918 47.98 2.217 9.697 47.98 1.697 10.217 47.98 0.918 10.4 47.98 0 10.217 47.98 -0.918 9.697 47.98 -1.697 8.918 47.98 -2.217 8.612 49.8 -1.478 9.131 49.8 -1.131 9.478 49.8 -0.612 9.6 49.8 0 9.478 49.8 0.612 9.131 49.8 1.131 8.612 49.8 1.478 8 49.8 1.6 7.388 49.8 1.478 6.869 49.8 1.131 6.522 49.8 0.612 6.4 49.8 0 6.522 49.8 -0.612 6.869 49.8 -1.131 7.388 49.8 -1.478 8 49.8 -1.6 8 49.8 -2.4 7.082 49.8 -2.217 6.303 49.8 -1.697 5.783 49.8 -0.918 5.6 49.8 0 5.783 49.8 0.918 6.303 49.8 1.697 7.082 49.8 2.217 8 49.8 2.4 8.918 49.8 2.217 9.697 49.8 1.697 10.217 49.8 0.918 10.4 49.8 0 10.217 49.8 -0.918 9.697 49.8 -1.697 8.918 49.8 -2.217 -5.631 0.15 -1.831 -7.006 0.15 -2.4 -5.6 0.15 -2.4 -5.72 0.15 -1.697 -5.854 0.15 -1.608 -6.012 0.15 -1.576 -6.169 0.15 -1.608 -6.303 0.15 -1.697 -5.6 0.151 -1.988 -5.631 46.8 -1.831 -7.006 46.8 -2.4 -5.6 46.8 -2.4 -5.72 46.8 -1.697 -5.854 46.8 -1.608 -6.012 46.8 -1.576 -6.169 46.8 -1.608 -6.303 46.8 -1.697 -5.6 46.801 -1.988 -2.369 0.15 -1.831 -0.994 0.15 -2.4 -2.4 0.15 -2.4 -2.28 0.15 -1.697 -2.146 0.15 -1.608 -1.988 0.15 -1.576 -1.831 0.15 -1.608 -1.697 0.15 -1.697 -2.4 0.151 -1.988 -2.369 46.8 -1.831 -0.994 46.8 -2.4 -2.4 46.8 -2.4 -2.28 46.8 -1.697 -2.146 46.8 -1.608 -1.988 46.8 -1.576 -1.831 46.8 -1.608 -1.697 46.8 -1.697 -2.4 46.801 -1.988 -5.631 0.15 1.831 -7.006 0.15 2.4 -5.6 0.15 2.4 -5.72 0.15 1.697 -5.854 0.15 1.608 -6.012 0.15 1.576 -6.169 0.15 1.608 -6.303 0.15 1.697 -5.6 0.151 1.988 -5.631 46.8 1.831 -7.006 46.8 2.4 -5.6 46.8 2.4 -5.72 46.8 1.697 -5.854 46.8 1.608 -6.012 46.8 1.576 -6.169 46.8 1.608 -6.303 46.8 1.697 -5.6 46.801 1.988 -2.369 0.15 1.831 -0.994 0.15 2.4 -2.4 0.15 2.4 -2.28 0.15 1.697 -2.146 0.15 1.608 -1.988 0.15 1.576 -1.831 0.15 1.608 -1.697 0.15 1.697 -2.4 0.151 1.988 -2.369 46.8 1.831 -0.994 46.8 2.4 -2.4 46.8 2.4 -2.28 46.8 1.697 -2.146 46.8 1.608 -1.988 46.8 1.576 -1.831 46.8 1.608 -1.697 46.8 1.697 -2.4 46.801 1.988 -11.96 47.98 3.96 -11.96 0.02 3.96 -11.96 47.98 -3.96 -10.4 0.02 -2.4 -11.96 0.02 -3.96 -10.4 0.02 2.4 -10.4 46.8 2.4 -10.4 46.8 -2.4 0 46.8 2.4 0 47.98 3.96 -8.612 46.8 -1.478 0 46.8 -2.4 -9.131 46.8 -1.131 -9.478 46.8 -0.612 -9.6 46.8 0 -9.478 46.8 0.612 -9.131 46.8 1.131 0 0.02 -2.4 0 0.02 2.4 -8.612 46.8 1.478 0 47.98 -3.96 0 0.02 3.96 -8 46.8 1.6 -7.388 46.8 1.478 -6.869 46.8 1.131 -6.522 46.8 0.612 -6.4 46.8 0 0 0.02 -3.96 -6.522 46.8 -0.612 -6.869 46.8 -1.131 -7.388 46.8 -1.478 -8 46.8 -1.6 0 47.98 -2.4 0 47.98 2.4 -0.918 47.98 2.217 -1.697 47.98 1.697 -2.217 47.98 0.918 -2.4 47.98 0 -2.217 47.98 -0.918 -1.697 47.98 -1.697 -0.918 47.98 -2.217 0 47.98 -1.6 0 47.98 1.6 -0.612 47.98 1.478 -1.131 47.98 1.131 -1.478 47.98 0.612 -1.6 47.98 0 -1.478 47.98 -0.612 -1.131 47.98 -1.131 -0.612 47.98 -1.478 0 49.8 -2.4 0 49.8 2.4 -0.918 49.8 2.217 -1.697 49.8 1.697 -2.217 49.8 0.918 -2.4 49.8 0 -2.217 49.8 -0.918 -1.697 49.8 -1.697 -0.918 49.8 -2.217 0 49.8 -1.6 0 49.8 1.6 -0.612 49.8 1.478 -1.131 49.8 1.131 -1.478 49.8 0.612 -1.6 49.8 0 -1.478 49.8 -0.612 -1.131 49.8 -1.131 -0.612 49.8 -1.478 -8 47.98 -2.4 -7.082 47.98 -2.217 -6.303 47.98 -1.697 -5.783 47.98 -0.918 -5.6 47.98 0 -5.783 47.98 0.918 -6.303 47.98 1.697 -7.082 47.98 2.217 -8 47.98 2.4 -8.918 47.98 2.217 -9.697 47.98 1.697 -10.217 47.98 0.918 -10.4 47.98 0 -10.217 47.98 -0.918 -9.697 47.98 -1.697 -8.918 47.98 -2.217 -8.612 49.8 -1.478 -9.131 49.8 -1.131 -9.478 49.8 -0.612 -9.6 49.8 0 -9.478 49.8 0.612 -9.131 49.8 1.131 -8.612 49.8 1.478 -8 49.8 1.6 -7.388 49.8 1.478 -6.869 49.8 1.131 -6.522 49.8 0.612 -6.4 49.8 0 -6.522 49.8 -0.612 -6.869 49.8 -1.131 -7.388 49.8 -1.478 -8 49.8 -1.6 -8 49.8 -2.4 -7.082 49.8 -2.217 -6.303 49.8 -1.697 -5.783 49.8 -0.918 -5.6 49.8 0 -5.783 49.8 0.918 -6.303 49.8 1.697 -7.082 49.8 2.217 -8 49.8 2.4 -8.918 49.8 2.217 -9.697 49.8 1.697 -10.217 49.8 0.918 -10.4 49.8 0 -10.217 49.8 -0.918 -9.697 49.8 -1.697 -8.918 49.8 -2.217 5.72 0.15 -1.697 5.854 0.15 -1.608 5.631 0.15 -1.831 6.012 0.15 -1.576 6.169 0.15 -1.608 6.303 0.15 -1.697 7.006 0.15 -2.4 5.6 0.151 -1.988 5.6 0.15 -2.4 2.28 0.15 -1.697 2.146 0.15 -1.608 2.369 0.15 -1.831 1.988 0.15 -1.576 1.831 0.15 -1.608 1.697 0.15 -1.697 0.994 0.15 -2.4 2.4 0.151 -1.988 2.4 0.15 -2.4 5.72 0.15 1.697 5.854 0.15 1.608 5.631 0.15 1.831 6.012 0.15 1.576 6.169 0.15 1.608 6.303 0.15 1.697 7.006 0.15 2.4 5.6 0.151 1.988 5.6 0.15 2.4 2.28 0.15 1.697 2.146 0.15 1.608 2.369 0.15 1.831 1.988 0.15 1.576 1.831 0.15 1.608 1.697 0.15 1.697 0.994 0.15 2.4 2.4 0.151 1.988 2.4 0.15 2.4 10.4 0.02 2.4 10.4 0.02 2.4 10.4 46.8 2.4 10.4 46.8 2.4 11.96 47.98 -3.96 11.96 47.98 -3.96 11.96 0.02 -3.96 11.96 0.02 -3.96 6.522 46.8 0.612 6.4 46.8 0 10.4 0.02 -2.4 10.4 0.02 -2.4 10.4 46.8 -2.4 10.4 46.8 -2.4 11.96 0.02 3.96 11.96 0.02 3.96 0 0.02 -3.96 0 0.02 3.96 6.522 46.8 -0.612 6.869 46.8 -1.131 6.869 46.8 1.131 8 46.8 -1.6 8.612 46.8 -1.478 11.96 47.98 3.96 11.96 47.98 3.96 9.478 46.8 -0.612 9.6 46.8 0 0 47.98 -3.96 0 0.02 2.4 7.388 46.8 1.478 8.612 46.8 1.478 8 46.8 1.6 9.131 46.8 1.131 9.478 46.8 0.612 9.131 46.8 -1.131 7.388 46.8 -1.478 0 47.98 3.96 0 46.8 -2.4 0 0.02 -2.4 0 46.8 2.4 0.918 49.8 2.217 0 49.8 2.4 1.697 49.8 1.697 2.217 49.8 0.918 2.4 49.8 0 2.217 49.8 -0.918 1.697 49.8 -1.697 0.918 49.8 -2.217 0 49.8 -2.4 0.612 49.8 1.478 0 49.8 1.6 1.131 49.8 1.131 1.478 49.8 0.612 1.6 49.8 0 1.478 49.8 -0.612 1.131 49.8 -1.131 0.612 49.8 -1.478 0 49.8 -1.6 7.082 47.98 -2.217 8 47.98 -2.4 6.303 47.98 -1.697 5.783 47.98 -0.918 5.6 47.98 0 5.783 47.98 0.918 6.303 47.98 1.697 7.082 47.98 2.217 8 47.98 2.4 8.918 47.98 2.217 9.697 47.98 1.697 10.217 47.98 0.918 10.4 47.98 0 10.217 47.98 -0.918 9.697 47.98 -1.697 8.918 47.98 -2.217 6.522 49.8 0.612 6.4 49.8 0 6.522 49.8 -0.612 6.869 49.8 -1.131 6.869 49.8 1.131 8 49.8 -1.6 8.612 49.8 -1.478 9.478 49.8 -0.612 9.6 49.8 0 7.388 49.8 1.478 8.612 49.8 1.478 8 49.8 1.6 9.131 49.8 1.131 9.478 49.8 0.612 9.131 49.8 -1.131 7.388 49.8 -1.478 7.082 49.8 -2.217 8 49.8 -2.4 6.303 49.8 -1.697 5.783 49.8 -0.918 5.6 49.8 0 5.783 49.8 0.918 6.303 49.8 1.697 7.082 49.8 2.217 8 49.8 2.4 8.918 49.8 2.217 9.697 49.8 1.697 10.217 49.8 0.918 10.4 49.8 0 10.217 49.8 -0.918 9.697 49.8 -1.697 8.918 49.8 -2.217 -5.72 0.15 -1.697 -5.854 0.15 -1.608 -5.631 0.15 -1.831 -6.012 0.15 -1.576 -6.169 0.15 -1.608 -6.303 0.15 -1.697 -7.006 0.15 -2.4 -5.6 0.151 -1.988 -5.6 0.15 -2.4 -2.28 0.15 -1.697 -2.146 0.15 -1.608 -2.369 0.15 -1.831 -1.988 0.15 -1.576 -1.831 0.15 -1.608 -1.697 0.15 -1.697 -0.994 0.15 -2.4 -2.4 0.151 -1.988 -2.4 0.15 -2.4 -5.72 0.15 1.697 -5.854 0.15 1.608 -5.631 0.15 1.831 -6.012 0.15 1.576 -6.169 0.15 1.608 -6.303 0.15 1.697 -7.006 0.15 2.4 -5.6 0.151 1.988 -5.6 0.15 2.4 -2.28 0.15 1.697 -2.146 0.15 1.608 -2.369 0.15 1.831 -1.988 0.15 1.576 -1.831 0.15 1.608 -1.697 0.15 1.697 -0.994 0.15 2.4 -2.4 0.151 1.988 -2.4 0.15 2.4 -10.4 0.02 2.4 -10.4 0.02 2.4 -10.4 46.8 2.4 -10.4 46.8 2.4 -11.96 47.98 -3.96 -11.96 47.98 -3.96 -11.96 0.02 -3.96 -11.96 0.02 -3.96 -6.522 46.8 0.612 -6.4 46.8 0 -10.4 0.02 -2.4 -10.4 0.02 -2.4 -10.4 46.8 -2.4 -10.4 46.8 -2.4 -11.96 0.02 3.96 -11.96 0.02 3.96 -6.522 46.8 -0.612 -6.869 46.8 -1.131 -6.869 46.8 1.131 -8 46.8 -1.6 -8.612 46.8 -1.478 -11.96 47.98 3.96 -11.96 47.98 3.96 -9.478 46.8 -0.612 -9.6 46.8 0 -7.388 46.8 1.478 -8.612 46.8 1.478 -8 46.8 1.6 -9.131 46.8 1.131 -9.478 46.8 0.612 -9.131 46.8 -1.131 -7.388 46.8 -1.478 -0.918 49.8 2.217 -1.697 49.8 1.697 -2.217 49.8 0.918 -2.4 49.8 0 -2.217 49.8 -0.918 -1.697 49.8 -1.697 -0.918 49.8 -2.217 -0.612 49.8 1.478 -1.131 49.8 1.131 -1.478 49.8 0.612 -1.6 49.8 0 -1.478 49.8 -0.612 -1.131 49.8 -1.131 -0.612 49.8 -1.478 -7.082 47.98 -2.217 -8 47.98 -2.4 -6.303 47.98 -1.697 -5.783 47.98 -0.918 -5.6 47.98 0 -5.783 47.98 0.918 -6.303 47.98 1.697 -7.082 47.98 2.217 -8 47.98 2.4 -8.918 47.98 2.217 -9.697 47.98 1.697 -10.217 47.98 0.918 -10.4 47.98 0 -10.217 47.98 -0.918 -9.697 47.98 -1.697 -8.918 47.98 -2.217 -6.522 49.8 0.612 -6.4 49.8 0 -6.522 49.8 -0.612 -6.869 49.8 -1.131 -6.869 49.8 1.131 -8 49.8 -1.6 -8.612 49.8 -1.478 -9.478 49.8 -0.612 -9.6 49.8 0 -7.388 49.8 1.478 -8.612 49.8 1.478 -8 49.8 1.6 -9.131 49.8 1.131 -9.478 49.8 0.612 -9.131 49.8 -1.131 -7.388 49.8 -1.478 -7.082 49.8 -2.217 -8 49.8 -2.4 -6.303 49.8 -1.697 -5.783 49.8 -0.918 -5.6 49.8 0 -5.783 49.8 0.918 -6.303 49.8 1.697 -7.082 49.8 2.217 -8 49.8 2.4 -8.918 49.8 2.217 -9.697 49.8 1.697 -10.217 49.8 0.918 -10.4 49.8 0 -10.217 49.8 -0.918 -9.697 49.8 -1.697 -8.918 49.8 -2.217</float_array>
					<technique_common>
						<accessor source="#3755.json-mesh-positions-array" count="632" stride="3">
							<param name="X" type="float"/>
							<param name="Y" type="float"/>
							<param name="Z" type="float"/>
						</accessor>
					</technique_common>
				</source>
				<vertices id="3755.json-mesh-vertices">
					<input semantic="POSITION" source="#3755.json-mesh-positions"/>
				</vertices>
				<triangles material="MB|21-material" count="588">
					<input semantic="VERTEX" source="#3755.json-mesh-vertices" offset="0"/>
					<p>362 364 360 364 363 360 361 360 363 365 364 367 364 362 367 367 368 365 368 366 365 7 1 16 1 10 16 5 6 14 6 15 14 6 7 15 7 16 15 2 8 11 8 17 11 3 4 12 4 13 12 4 5 13 5 14 13 0 3 9 3 12 9 8 0 17 0 9 17 371 369 373 369 372 373 370 372 369 374 376 373 376 371 373 376 374 377 374 375 377 25 34 19 34 28 19 23 32 24 32 33 24 24 33 25 33 34 25 20 29 26 29 35 26 21 30 22 30 31 22 22 31 23 31 32 23 18 27 21 27 30 21 26 35 18 35 27 18 380 378 382 378 381 382 379 381 378 383 385 382 385 380 382 385 383 386 383 384 386 43 52 37 52 46 37 41 50 42 50 51 42 42 51 43 51 52 43 38 47 44 47 53 44 39 48 40 48 49 40 40 49 41 49 50 41 36 45 39 45 48 39 44 53 36 53 45 36 389 391 387 391 390 387 388 387 390 392 391 394 391 389 394 394 395 392 395 393 392 61 55 70 55 64 70 59 60 68 60 69 68 60 61 69 61 70 69 56 62 65 62 71 65 57 58 66 58 67 66 58 59 67 59 68 67 54 57 63 57 66 63 62 54 71 54 63 71 402 412 400 412 423 400 398 408 396 408 406 396 403 410 407 410 77 407 271 403 434 403 407 434 399 397 435 397 424 435 409 433 75 433 261 75 413 262 410 262 77 410 411 76 419 76 401 419 265 73 432 73 420 432 103 286 445 286 446 445 99 440 98 440 439 98 104 103 447 103 445 447 100 441 99 441 440 99 105 104 448 104 447 448 101 442 100 442 441 100 106 105 449 105 448 449 102 443 101 443 442 101 107 106 450 106 449 450 276 444 102 444 443 102 108 107 451 107 450 451 109 108 452 108 451 452 285 109 453 109 452 453 96 436 277 436 437 277 97 438 96 438 436 96 98 439 97 439 438 97 303 123 294 123 116 294 111 112 118 112 119 118 110 111 117 111 118 117 114 115 121 115 122 121 121 120 114 120 113 114 120 119 113 119 112 113 115 116 122 116 123 122 110 117 295 117 304 295 462 494 461 494 493 461 429 428 483 428 482 483 463 495 462 495 494 462 464 496 463 496 495 463 465 497 464 497 496 464 404 405 470 405 471 470 427 425 481 425 479 481 425 416 479 416 474 479 466 498 465 498 497 465 426 427 480 427 481 480 467 499 466 499 498 466 405 414 471 414 472 471 468 500 467 500 499 467 454 486 455 486 487 455 418 430 476 430 484 476 428 426 482 426 480 482 469 501 468 501 500 468 456 488 454 488 486 454 422 429 478 429 483 478 455 487 469 487 501 469 414 415 472 415 473 472 457 489 456 489 488 456 430 421 484 421 477 484 416 404 474 404 470 474 458 490 457 490 489 457 415 431 473 431 485 473 417 418 475 418 476 475 459 491 458 491 490 458 431 417 485 417 475 485 460 492 459 492 491 459 461 493 460 493 492 460 421 422 477 422 478 477 166 167 145 167 144 145 78 86 85 88 252 89 82 81 79 78 83 79 165 146 164 146 147 164 78 84 83 80 95 79 255 92 91 89 252 90 140 141 171 141 170 171 169 170 142 170 141 142 94 93 255 255 93 92 161 162 150 162 149 150 155 140 156 140 171 156 78 252 88 157 154 156 154 155 156 160 151 159 151 152 159 94 255 79 153 158 152 158 159 152 147 148 164 148 163 164 95 94 79 252 255 91 157 158 154 158 153 154 162 163 149 163 148 149 78 85 84 142 143 169 143 168 169 143 144 168 144 167 168 165 166 146 166 145 146 81 80 79 90 252 91 160 161 151 161 150 151 87 78 88 78 87 86 126 264 127 83 82 79 126 125 264 74 264 124 124 139 74 139 138 74 138 137 74 72 74 136 136 74 137 264 128 127 253 128 264 135 72 136 253 129 128 253 130 129 134 72 135 253 131 130 133 72 134 253 132 131 132 72 133 253 72 132 124 264 125 504 502 506 502 505 506 503 505 502 507 509 506 509 504 506 509 507 510 507 508 510 179 188 173 188 182 173 177 186 178 186 187 178 178 187 179 187 188 179 174 183 180 183 189 180 175 184 176 184 185 176 176 185 177 185 186 177 172 181 175 181 184 175 180 189 172 189 181 172 513 515 511 515 514 511 512 511 514 516 515 518 515 513 518 518 519 516 519 517 516 197 191 206 191 200 206 195 196 204 196 205 204 196 197 205 197 206 205 192 198 201 198 207 201 193 194 202 194 203 202 194 195 203 195 204 203 190 193 199 193 202 199 198 190 207 190 199 207 522 524 520 524 523 520 521 520 523 525 524 527 524 522 527 527 528 525 528 526 525 215 209 224 209 218 224 213 214 222 214 223 222 214 215 223 215 224 223 210 216 219 216 225 219 211 212 220 212 221 220 212 213 221 213 222 221 208 211 217 211 220 217 216 208 225 208 217 225 531 529 533 529 532 533 530 532 529 534 536 533 536 531 533 536 534 537 534 535 537 233 242 227 242 236 227 231 240 232 240 241 232 232 241 233 241 242 233 228 237 234 237 243 234 229 238 230 238 239 230 230 239 231 239 240 231 226 235 229 235 238 229 234 243 226 243 235 226 544 542 412 542 423 412 540 538 550 538 548 550 545 549 552 549 249 552 271 434 545 434 549 545 541 435 539 435 424 539 551 247 433 247 261 433 413 552 262 552 249 262 553 559 248 559 543 248 265 432 245 432 560 245 287 577 286 577 446 286 281 280 573 280 572 573 288 578 287 578 577 287 282 281 574 281 573 574 289 579 288 579 578 288 283 282 575 282 574 575 290 580 289 580 579 289 284 283 576 283 575 576 291 581 290 581 580 290 276 284 444 284 576 444 292 582 291 582 581 291 293 583 292 583 582 292 285 453 293 453 583 293 278 277 570 277 437 570 279 278 571 278 570 571 280 279 572 279 571 572 303 294 311 294 302 311 297 306 298 306 307 298 296 305 297 305 306 297 300 309 301 309 310 301 309 300 308 300 299 308 308 299 307 299 298 307 301 310 302 310 311 302 296 295 305 295 304 305 592 591 624 591 623 624 567 613 566 613 612 566 593 592 625 592 624 625 594 593 626 593 625 626 595 594 627 594 626 627 546 600 547 600 601 547 565 611 563 611 609 563 563 609 556 609 604 556 596 595 628 595 627 628 564 610 565 610 611 565 597 596 629 596 628 629 547 601 554 601 602 554 598 597 630 597 629 630 584 585 616 585 617 616 558 606 568 606 614 568 566 612 564 612 610 564 599 598 631 598 630 631 586 584 618 584 616 618 562 608 567 608 613 567 585 599 617 599 631 617 554 602 555 602 603 555 587 586 619 586 618 619 568 614 561 614 607 561 556 604 546 604 600 546 588 587 620 587 619 620 555 603 569 603 615 569 557 605 558 605 606 558 589 588 621 588 620 621 569 615 557 615 605 557 590 589 622 589 621 622 591 590 623 590 622 623 561 607 562 607 608 562 354 333 355 333 332 355 250 260 263 267 268 252 257 251 256 250 251 258 353 352 334 352 335 334 250 258 259 254 251 275 255 270 272 268 269 252 328 359 329 359 358 329 357 330 358 330 329 358 274 255 273 255 272 273 349 338 350 338 337 350 343 344 328 344 359 328 250 267 252 345 344 342 344 343 342 348 347 339 347 340 339 274 251 255 341 340 346 340 347 346 335 352 336 352 351 336 275 251 274 252 270 255 345 342 346 342 341 346 350 337 351 337 336 351 250 259 260 330 357 331 357 356 331 331 356 332 356 355 332 353 334 354 334 333 354 256 251 254 269 270 252 348 339 349 339 338 349 266 267 250 250 263 266 314 315 264 258 251 257 314 264 313 246 312 264 312 246 327 327 246 326 326 246 325 244 324 246 324 325 246 264 315 316 253 264 316 323 324 244 253 316 317 253 317 318 322 323 244 253 318 319 321 322 244 253 319 320 320 321 244 253 320 244 312 313 264</p>
				</triangles>
			</mesh>
		</geometry>
	</library_geometries>
	<library_visual_scenes>
		<visual_scene id="Scene" name="Scene">
			<node id="Part_0" name="Part.0" type="NODE">
				<matrix sid="transform">1 0 0 0 0 1 0 0 0 0 1 0 0 0 0 1</matrix>
				<instance_geometry url="#3755.json-mesh">
					<bind_material>
						<technique_common>
							<instance_material symbol="MB|21-material" target="#MB|21-material"/>
						</technique_common>
					</bind_material>
				</instance_geometry>
			</node>
		</visual_scene>
	</library_visual_scenes>
	<scene>
		<instance_visual_scene url="#Scene"/>
	</scene>
</COLLADA>